<?xml version="1.0" encoding="UTF-8"?>
<svg xmlns="http://www.w3.org/2000/svg" xmlns:xlink="http://www.w3.org/1999/xlink" width="48px" height="20px" viewBox="0 0 46 20" version="1.1">
<g id="surface1">
<path style=" stroke:none;fill-rule:nonzero;fill:rgb(78.039217%,69.803923%,60.000002%);fill-opacity:1;" d="M 11.160156 7.789062 C 11.160156 7.710938 11.1875 7.640625 11.242188 7.582031 C 11.296875 7.527344 11.367188 7.496094 11.445312 7.496094 C 11.527344 7.496094 11.59375 7.527344 11.652344 7.582031 C 11.707031 7.640625 11.738281 7.710938 11.738281 7.789062 L 11.738281 12.207031 C 11.738281 12.289062 11.707031 12.359375 11.652344 12.417969 C 11.59375 12.472656 11.527344 12.503906 11.445312 12.503906 C 11.367188 12.503906 11.296875 12.472656 11.242188 12.417969 C 11.1875 12.359375 11.160156 12.289062 11.160156 12.207031 L 11.160156 10.292969 C 11.160156 10.195312 11.109375 10.148438 11.011719 10.148438 L 7.832031 10.148438 C 7.738281 10.148438 7.6875 10.195312 7.6875 10.292969 L 7.6875 12.207031 C 7.6875 12.289062 7.660156 12.359375 7.605469 12.417969 C 7.546875 12.472656 7.480469 12.503906 7.402344 12.503906 C 7.320312 12.503906 7.253906 12.472656 7.195312 12.417969 C 7.140625 12.359375 7.113281 12.289062 7.113281 12.207031 L 7.113281 7.789062 C 7.113281 7.710938 7.140625 7.640625 7.195312 7.582031 C 7.253906 7.527344 7.320312 7.496094 7.402344 7.496094 C 7.480469 7.496094 7.546875 7.527344 7.605469 7.582031 C 7.660156 7.640625 7.6875 7.710938 7.6875 7.789062 L 7.6875 9.410156 C 7.6875 9.511719 7.738281 9.558594 7.832031 9.558594 L 11.011719 9.558594 C 11.113281 9.558594 11.160156 9.507812 11.160156 9.410156 Z M 11.160156 7.789062 "/>
<path style=" stroke:none;fill-rule:nonzero;fill:rgb(78.039217%,69.803923%,60.000002%);fill-opacity:1;" d="M 13.082031 12.417969 C 13.027344 12.359375 13 12.289062 13 12.207031 L 13 7.789062 C 13 7.710938 13.027344 7.640625 13.082031 7.582031 C 13.140625 7.527344 13.210938 7.496094 13.289062 7.496094 C 13.367188 7.496094 13.4375 7.527344 13.496094 7.582031 C 13.550781 7.640625 13.578125 7.710938 13.578125 7.789062 L 13.578125 12.207031 C 13.578125 12.289062 13.550781 12.359375 13.496094 12.417969 C 13.4375 12.472656 13.367188 12.503906 13.289062 12.503906 C 13.210938 12.503906 13.140625 12.472656 13.082031 12.417969 Z M 13.082031 12.417969 "/>
<path style=" stroke:none;fill-rule:nonzero;fill:rgb(78.039217%,69.803923%,60.000002%);fill-opacity:1;" d="M 18.792969 7.679688 C 18.84375 7.558594 18.929688 7.496094 19.058594 7.496094 C 19.164062 7.496094 19.242188 7.542969 19.296875 7.628906 C 19.355469 7.714844 19.363281 7.808594 19.324219 7.90625 L 17.5 12.320312 C 17.453125 12.441406 17.363281 12.503906 17.234375 12.503906 L 16.992188 12.503906 C 16.863281 12.503906 16.773438 12.441406 16.722656 12.320312 L 14.898438 7.90625 C 14.859375 7.808594 14.867188 7.714844 14.921875 7.628906 C 14.980469 7.542969 15.0625 7.496094 15.164062 7.496094 C 15.292969 7.496094 15.382812 7.558594 15.433594 7.679688 L 17.058594 11.613281 C 17.070312 11.640625 17.085938 11.652344 17.113281 11.652344 C 17.136719 11.652344 17.15625 11.640625 17.164062 11.613281 Z M 18.792969 7.679688 "/>
<path style=" stroke:none;fill-rule:nonzero;fill:rgb(78.039217%,69.803923%,60.000002%);fill-opacity:1;" d="M 20.648438 7.789062 C 20.648438 7.710938 20.675781 7.640625 20.730469 7.582031 C 20.789062 7.527344 20.859375 7.496094 20.9375 7.496094 L 24.984375 7.496094 C 25.0625 7.496094 25.132812 7.527344 25.1875 7.582031 C 25.246094 7.640625 25.273438 7.710938 25.273438 7.789062 C 25.273438 7.871094 25.246094 7.941406 25.1875 7.996094 C 25.132812 8.058594 25.0625 8.085938 24.984375 8.085938 L 20.9375 8.085938 C 20.859375 8.085938 20.789062 8.058594 20.730469 7.996094 C 20.675781 7.941406 20.648438 7.871094 20.648438 7.789062 Z M 20.9375 10.148438 C 20.859375 10.148438 20.789062 10.117188 20.730469 10.058594 C 20.675781 10.003906 20.648438 9.933594 20.648438 9.851562 C 20.648438 9.769531 20.675781 9.699219 20.730469 9.644531 C 20.789062 9.585938 20.859375 9.558594 20.9375 9.558594 L 24.984375 9.558594 C 25.0625 9.558594 25.132812 9.585938 25.1875 9.644531 C 25.246094 9.699219 25.273438 9.769531 25.273438 9.851562 C 25.273438 9.933594 25.246094 10.003906 25.1875 10.058594 C 25.132812 10.117188 25.0625 10.148438 24.984375 10.148438 Z M 20.9375 12.503906 C 20.859375 12.503906 20.789062 12.472656 20.730469 12.417969 C 20.675781 12.359375 20.648438 12.289062 20.648438 12.207031 C 20.648438 12.125 20.675781 12.058594 20.730469 12 C 20.789062 11.941406 20.859375 11.914062 20.9375 11.914062 L 24.984375 11.914062 C 25.0625 11.914062 25.132812 11.941406 25.1875 12 C 25.246094 12.058594 25.273438 12.125 25.273438 12.207031 C 25.273438 12.289062 25.246094 12.359375 25.1875 12.417969 C 25.132812 12.472656 25.0625 12.503906 24.984375 12.503906 Z M 20.9375 12.503906 "/>
<path style=" stroke:none;fill-rule:nonzero;fill:rgb(78.039217%,69.803923%,60.000002%);fill-opacity:1;" d="M 30.511719 9.738281 C 30.945312 9.992188 31.160156 10.375 31.160156 10.882812 L 31.160156 11.179688 C 31.160156 11.542969 31.035156 11.855469 30.78125 12.113281 C 30.527344 12.375 30.21875 12.503906 29.859375 12.503906 L 26.824219 12.503906 C 26.746094 12.503906 26.675781 12.476562 26.617188 12.417969 C 26.5625 12.359375 26.535156 12.289062 26.535156 12.207031 L 26.535156 7.789062 C 26.535156 7.710938 26.5625 7.640625 26.617188 7.582031 C 26.675781 7.527344 26.746094 7.496094 26.824219 7.496094 L 29.546875 7.496094 C 29.910156 7.496094 30.21875 7.625 30.476562 7.878906 C 30.738281 8.136719 30.867188 8.445312 30.871094 8.808594 C 30.871094 9.167969 30.753906 9.476562 30.511719 9.738281 Z M 27.257812 8.085938 C 27.160156 8.085938 27.113281 8.136719 27.113281 8.234375 L 27.113281 9.410156 C 27.113281 9.511719 27.160156 9.558594 27.257812 9.558594 L 29.570312 9.558594 C 29.765625 9.558594 29.9375 9.488281 30.078125 9.34375 C 30.21875 9.203125 30.289062 9.035156 30.292969 8.832031 C 30.292969 8.628906 30.222656 8.453125 30.078125 8.304688 C 29.929688 8.160156 29.753906 8.085938 29.550781 8.085938 Z M 30.582031 10.882812 C 30.582031 10.679688 30.511719 10.507812 30.371094 10.363281 C 30.230469 10.21875 30.058594 10.148438 29.859375 10.148438 L 27.257812 10.148438 C 27.160156 10.148438 27.113281 10.195312 27.113281 10.292969 L 27.113281 11.765625 C 27.113281 11.863281 27.160156 11.914062 27.257812 11.914062 L 29.859375 11.914062 C 30.058594 11.914062 30.230469 11.84375 30.371094 11.699219 C 30.511719 11.554688 30.582031 11.382812 30.582031 11.179688 Z M 30.582031 10.882812 "/>
<path style=" stroke:none;fill-rule:nonzero;fill:rgb(78.039217%,69.803923%,60.000002%);fill-opacity:1;" d="M 32.503906 12.417969 C 32.449219 12.359375 32.421875 12.289062 32.421875 12.207031 L 32.421875 7.789062 C 32.421875 7.710938 32.449219 7.640625 32.503906 7.582031 C 32.5625 7.527344 32.632812 7.496094 32.714844 7.496094 C 32.792969 7.496094 32.859375 7.527344 32.917969 7.582031 C 32.972656 7.640625 33 7.710938 33 7.789062 L 33 12.207031 C 33 12.289062 32.972656 12.359375 32.917969 12.417969 C 32.859375 12.472656 32.792969 12.503906 32.714844 12.503906 C 32.632812 12.503906 32.5625 12.472656 32.503906 12.417969 Z M 32.503906 12.417969 "/>
<path style=" stroke:none;fill-rule:nonzero;fill:rgb(78.039217%,69.803923%,60.000002%);fill-opacity:1;" d="M 38.597656 7.496094 C 38.679688 7.496094 38.746094 7.527344 38.800781 7.582031 C 38.859375 7.640625 38.886719 7.710938 38.886719 7.789062 C 38.886719 7.871094 38.859375 7.941406 38.800781 7.996094 C 38.746094 8.058594 38.679688 8.085938 38.597656 8.085938 L 37.007812 8.085938 C 36.914062 8.085938 36.863281 8.136719 36.863281 8.234375 L 36.863281 12.207031 C 36.863281 12.289062 36.835938 12.359375 36.78125 12.417969 C 36.722656 12.472656 36.652344 12.503906 36.574219 12.503906 C 36.496094 12.503906 36.425781 12.472656 36.367188 12.417969 C 36.3125 12.359375 36.285156 12.289062 36.285156 12.207031 L 36.285156 8.234375 C 36.285156 8.136719 36.238281 8.085938 36.144531 8.085938 L 34.554688 8.085938 C 34.472656 8.085938 34.402344 8.058594 34.34375 7.996094 C 34.289062 7.941406 34.261719 7.871094 34.261719 7.789062 C 34.261719 7.710938 34.289062 7.640625 34.34375 7.582031 C 34.402344 7.527344 34.472656 7.496094 34.554688 7.496094 Z M 38.597656 7.496094 "/>
</g>
</svg>
